# xmcd CD database file
#
# Track frame offsets:
#	150
#	12702
#	26141
#	39316
#	52051
#	64639
#	78277
#	91486
#	105069
#	119475
#	133540
#	145670
#	159386
#	173967
#	188338
#	200118
#	212579
#	227316
#	243158
#	256243
#	269005
#	281842
#	296425
#
# Disc length: 4107 seconds
#
# Revision: 0
# Processed by: cddbd v1.5.2PL0 Copyright (c) Steve Scherf et al.
# Submitted via: CDex 1.51
#
DISCID=42100917
DTITLE=Joe Bushkin - 1940-1946
DYEAR=2007
DGENRE=Jazz
TTITLE0=Serenade In Thirds
TTITLE1=I Can't Get Started
TTITLE2=Blue Chips
TTITLE3=Joe's Blues
TTITLE4=In A Little Spanish Town
TTITLE5=I'll Never Be The Same
TTITLE6=Caldonia Is Gone
TTITLE7=Morgan's Blues
TTITLE8=Sweet Georgia Brown
TTITLE9=Bozay
TTITLE10=Merci Michelle
TTITLE11=Getaway Joe
TTITLE12=Black Satin Gal
TTITLE13=In A Persian Black Market
TTITLE14=Culver City Suite
TTITLE15=Pickin' At The Pic
TTITLE16=Fade Out
TTITLE17=Oh, Lady Be Good!
TTITLE18=Georgia (On My Mind)
TTITLE19=Mean To Me
TTITLE20=Indian Summer
TTITLE21=Boogie Woogie Platter
TTITLE22=Indiana
EXTD=YEAR: 2007
EXTT0=
EXTT1=
EXTT2=
EXTT3=
EXTT4=
EXTT5=
EXTT6=
EXTT7=
EXTT8=
EXTT9=
EXTT10=
EXTT11=
EXTT12=
EXTT13=
EXTT14=
EXTT15=
EXTT16=
EXTT17=
EXTT18=
EXTT19=
EXTT20=
EXTT21=
EXTT22=
PLAYORDER=
